<svg xmlns="http://www.w3.org/2000/svg">
	<symbol id="mail" viewBox="0 0 24 24"><path d="M0 3v18h24v-18h-24zm6.623 7.929l-4.623 5.712v-9.458l4.623 3.746zm-4.141-5.929h19.035l-9.517 7.713-9.518-7.713zm5.694 7.188l3.824 3.099 3.83-3.104 5.612 6.817h-18.779l5.513-6.812zm9.208-1.264l4.616-3.741v9.348l-4.616-5.607z"/></symbol>
	<symbol id="link" viewBox="0 0 24 24"><path d="M6.188 8.719c.439-.439.926-.801 1.444-1.087 2.887-1.591 6.589-.745 8.445 2.069l-2.246 2.245c-.644-1.469-2.243-2.305-3.834-1.949-.599.134-1.168.433-1.633.898l-4.304 4.306c-1.307 1.307-1.307 3.433 0 4.74 1.307 1.307 3.433 1.307 4.74 0l1.327-1.327c1.207.479 2.501.67 3.779.575l-2.929 2.929c-2.511 2.511-6.582 2.511-9.093 0s-2.511-6.582 0-9.093l4.304-4.306zm6.836-6.836l-2.929 2.929c1.277-.096 2.572.096 3.779.574l1.326-1.326c1.307-1.307 3.433-1.307 4.74 0 1.307 1.307 1.307 3.433 0 4.74l-4.305 4.305c-1.311 1.311-3.44 1.3-4.74 0-.303-.303-.564-.68-.727-1.051l-2.246 2.245c.236.358.481.667.796.982.812.812 1.846 1.417 3.036 1.704 1.542.371 3.194.166 4.613-.617.518-.286 1.005-.648 1.444-1.087l4.304-4.305c2.512-2.511 2.512-6.582.001-9.093-2.511-2.51-6.581-2.51-9.092 0z"/></symbol>
	<symbol id="user" viewBox="0 0 24 24"><path d="M12 0c-6.627 0-12 5.373-12 12s5.373 12 12 12 12-5.373 12-12-5.373-12-12-12zm7.753 18.305c-.261-.586-.789-.991-1.871-1.241-2.293-.529-4.428-.993-3.393-2.945 3.145-5.942.833-9.119-2.489-9.119-3.388 0-5.644 3.299-2.489 9.119 1.066 1.964-1.148 2.427-3.393 2.945-1.084.25-1.608.658-1.867 1.246-1.405-1.723-2.251-3.919-2.251-6.31 0-5.514 4.486-10 10-10s10 4.486 10 10c0 2.389-.845 4.583-2.247 6.305z"/></symbol>
	<symbol id="bus" viewBox="0 0 24 24" fill-rule="evenodd" clip-rule="evenodd"><path d="M6 24h-2c-.552 0-1-.448-1-1v-1c-.53 0-1.039-.211-1.414-.586s-.586-.884-.586-1.414v-8c-.552 0-1-.448-1-1v-3c0-.552.448-1 1-1v-4c0-1.657 1.343-3 3-3h16c1.657 0 3 1.343 3 3v4c.552 0 1 .448 1 1v3c0 .552-.448 1-1 1v8c0 .53-.211 1.039-.586 1.414s-.884.586-1.414.586v1c0 .552-.448 1-1 1h-2c-.552 0-1-.448-1-1v-1h-10v1c0 .552-.448 1-1 1zm-1.5-7c.828 0 1.5.672 1.5 1.5s-.672 1.5-1.5 1.5-1.5-.672-1.5-1.5.672-1.5 1.5-1.5zm15 0c.828 0 1.5.672 1.5 1.5s-.672 1.5-1.5 1.5-1.5-.672-1.5-1.5.672-1.5 1.5-1.5zm-5 1h-5c-.276 0-.5.224-.5.5s.224.5.5.5h5c.276 0 .5-.224.5-.5s-.224-.5-.5-.5zm6.5-12.5c0-.276-.224-.5-.5-.5h-17c-.276 0-.5.224-.5.5v8.5s3.098 1 9 1 9-1 9-1v-8.5zm-5-3.5h-8v1h8v-1z"/></symbol>
	<symbol id="loading" viewBox="0 0 24 24"><path d="M23 12c0 1.042-.154 2.045-.425 3h-2.101c.335-.94.526-1.947.526-3 0-4.962-4.037-9-9-9-1.706 0-3.296.484-4.655 1.314l1.858 2.686h-6.994l2.152-7 1.849 2.673c1.684-1.049 3.659-1.673 5.79-1.673 6.074 0 11 4.925 11 11zm-6.354 7.692c-1.357.826-2.944 1.308-4.646 1.308-4.962 0-9-4.038-9-9 0-1.053.191-2.06.525-3h-2.1c-.271.955-.425 1.958-.425 3 0 6.075 4.925 11 11 11 2.127 0 4.099-.621 5.78-1.667l1.853 2.667 2.152-6.989h-6.994l1.855 2.681z"/></symbol>
</svg>